<svg width="1278" height="648" viewBox="0 0 1278 648" fill="none" xmlns="http://www.w3.org/2000/svg">
<rect y="6" width="250" height="60" rx="12" fill="#D9D9D9"/>
<rect y="546" width="150" height="60" rx="12" fill="#D9D9D9"/>
<rect y="110" width="600" height="60" rx="12" fill="#D9D9D9"/>
<rect y="224" width="600" height="200" rx="12" fill="#D9D9D9"/>
<rect y="460" width="200" height="51" rx="12" fill="#D9D9D9" fill-opacity="0.5"/>
<rect x="277" y="19" width="160" height="35" rx="12" fill="#D9D9D9" fill-opacity="0.5"/>
<rect y="78" width="92" height="20" rx="10" fill="#D9D9D9" fill-opacity="0.5"/>
<rect y="186" width="92" height="20" rx="10" fill="#D9D9D9" fill-opacity="0.5"/>
<rect x="678" y="110" width="600" height="60" rx="12" fill="#D9D9D9"/>
<rect x="678" y="224" width="600" height="200" rx="12" fill="#D9D9D9"/>
<rect x="678" y="460" width="200" height="51" rx="12" fill="#D9D9D9" fill-opacity="0.5"/>
<rect x="678" y="78" width="92" height="20" rx="10" fill="#D9D9D9" fill-opacity="0.5"/>
<rect x="678" y="186" width="92" height="20" rx="10" fill="#D9D9D9" fill-opacity="0.5"/>
<line x1="636" y1="4.37114e-08" x2="636" y2="648" stroke="#D9D9D9" stroke-width="2"/>
</svg>
