<svg width="1128" height="648" viewBox="0 0 1128 648" fill="none" xmlns="http://www.w3.org/2000/svg">
<rect x="20" y="71" width="70" height="70" rx="8" fill="#D9D9D9" fill-opacity="0.5"/>
<rect x="105" y="71" width="70" height="70" rx="8" fill="#D9D9D9" fill-opacity="0.5"/>
<rect x="190" y="71" width="70" height="70" rx="8" fill="#D9D9D9" fill-opacity="0.5"/>
<rect x="275" y="71" width="70" height="70" rx="8" fill="#D9D9D9" fill-opacity="0.5"/>
<rect x="360" y="71" width="70" height="70" rx="8" fill="#D9D9D9" fill-opacity="0.5"/>
<rect x="20" y="152" width="70" height="70" rx="8" fill="#D9D9D9" fill-opacity="0.5"/>
<rect x="105" y="152" width="70" height="70" rx="8" fill="#D9D9D9" fill-opacity="0.5"/>
<rect x="190" y="152" width="70" height="70" rx="8" fill="#D9D9D9" fill-opacity="0.5"/>
<rect x="275" y="152" width="70" height="70" rx="8" fill="#D9D9D9" fill-opacity="0.5"/>
<rect x="360" y="152" width="70" height="70" rx="8" fill="#D9D9D9" fill-opacity="0.5"/>
<rect x="20" y="233" width="70" height="70" rx="8" fill="#D9D9D9" fill-opacity="0.5"/>
<rect x="105" y="233" width="70" height="70" rx="8" fill="#D9D9D9" fill-opacity="0.5"/>
<rect x="190" y="233" width="70" height="70" rx="8" fill="#D9D9D9" fill-opacity="0.5"/>
<rect x="275" y="233" width="70" height="70" rx="8" fill="#D9D9D9" fill-opacity="0.5"/>
<rect x="360" y="233" width="70" height="70" rx="8" fill="#D9D9D9" fill-opacity="0.5"/>
<rect x="20" y="314" width="70" height="70" rx="8" fill="#D9D9D9" fill-opacity="0.5"/>
<rect x="105" y="314" width="70" height="70" rx="8" fill="#D9D9D9" fill-opacity="0.5"/>
<rect x="190" y="314" width="70" height="70" rx="8" fill="#D9D9D9" fill-opacity="0.5"/>
<rect x="275" y="314" width="70" height="70" rx="8" fill="#D9D9D9" fill-opacity="0.5"/>
<rect x="360" y="314" width="70" height="70" rx="8" fill="#D9D9D9" fill-opacity="0.5"/>
<rect x="20" y="395" width="70" height="70" rx="8" fill="#D9D9D9" fill-opacity="0.5"/>
<rect x="105" y="395" width="70" height="70" rx="8" fill="#D9D9D9" fill-opacity="0.5"/>
<rect x="190" y="395" width="70" height="70" rx="8" fill="#D9D9D9" fill-opacity="0.5"/>
<rect x="275" y="395" width="70" height="70" rx="8" fill="#D9D9D9" fill-opacity="0.5"/>
<rect x="360" y="395" width="70" height="70" rx="8" fill="#D9D9D9" fill-opacity="0.5"/>
<rect x="20" y="476" width="70" height="70" rx="8" fill="#D9D9D9" fill-opacity="0.5"/>
<rect x="105" y="476" width="70" height="70" rx="8" fill="#D9D9D9" fill-opacity="0.5"/>
<rect x="190" y="476" width="70" height="70" rx="8" fill="#D9D9D9" fill-opacity="0.5"/>
<rect x="275" y="476" width="70" height="70" rx="8" fill="#D9D9D9" fill-opacity="0.5"/>
<rect x="360" y="476" width="70" height="70" rx="8" fill="#D9D9D9" fill-opacity="0.5"/>
<rect x="30" y="81" width="50" height="50" rx="12" fill="#525252" fill-opacity="0.5"/>
<rect x="115" y="81" width="50" height="50" rx="12" fill="#525252" fill-opacity="0.5"/>
<rect x="200" y="81" width="50" height="50" rx="12" fill="#525252" fill-opacity="0.5"/>
<rect x="285" y="81" width="50" height="50" rx="12" fill="#525252" fill-opacity="0.5"/>
<rect x="368" y="81" width="50" height="50" rx="12" fill="#525252" fill-opacity="0.5"/>
<rect x="30" y="162" width="50" height="50" rx="12" fill="#525252" fill-opacity="0.5"/>
<rect x="115" y="162" width="50" height="50" rx="12" fill="#525252" fill-opacity="0.5"/>
<rect x="200" y="162" width="50" height="50" rx="12" fill="#525252" fill-opacity="0.5"/>
<rect x="285" y="162" width="50" height="50" rx="12" fill="#525252" fill-opacity="0.5"/>
<rect x="368" y="162" width="50" height="50" rx="12" fill="#525252" fill-opacity="0.5"/>
<rect x="30" y="243" width="50" height="50" rx="12" fill="#525252" fill-opacity="0.5"/>
<rect x="115" y="243" width="50" height="50" rx="12" fill="#525252" fill-opacity="0.5"/>
<rect x="200" y="243" width="50" height="50" rx="12" fill="#525252" fill-opacity="0.5"/>
<rect x="285" y="243" width="50" height="50" rx="12" fill="#525252" fill-opacity="0.5"/>
<rect x="368" y="243" width="50" height="50" rx="12" fill="#525252" fill-opacity="0.5"/>
<rect x="30" y="324" width="50" height="50" rx="12" fill="#525252" fill-opacity="0.5"/>
<rect x="115" y="324" width="50" height="50" rx="12" fill="#525252" fill-opacity="0.5"/>
<rect x="200" y="324" width="50" height="50" rx="12" fill="#525252" fill-opacity="0.5"/>
<rect x="285" y="324" width="50" height="50" rx="12" fill="#525252" fill-opacity="0.5"/>
<rect x="368" y="324" width="50" height="50" rx="12" fill="#525252" fill-opacity="0.5"/>
<rect x="30" y="405" width="50" height="50" rx="12" fill="#525252" fill-opacity="0.5"/>
<rect x="115" y="405" width="50" height="50" rx="12" fill="#525252" fill-opacity="0.5"/>
<rect x="200" y="405" width="50" height="50" rx="12" fill="#525252" fill-opacity="0.5"/>
<rect x="285" y="405" width="50" height="50" rx="12" fill="#525252" fill-opacity="0.5"/>
<rect x="368" y="405" width="50" height="50" rx="12" fill="#525252" fill-opacity="0.5"/>
<rect x="30" y="486" width="50" height="50" rx="12" fill="#525252" fill-opacity="0.5"/>
<rect x="115" y="486" width="50" height="50" rx="12" fill="#525252" fill-opacity="0.5"/>
<rect x="200" y="486" width="50" height="50" rx="12" fill="#525252" fill-opacity="0.5"/>
<rect x="285" y="486" width="50" height="50" rx="12" fill="#525252" fill-opacity="0.5"/>
<rect x="368" y="486" width="50" height="50" rx="12" fill="#525252" fill-opacity="0.5"/>
<rect y="51" width="450" height="516" rx="16" fill="#D9D9D9" fill-opacity="0.5"/>
<line x1="561" y1="4.37114e-08" x2="561" y2="648" stroke="#D9D9D9" stroke-width="2"/>
<line x1="624" y1="429" x2="1128" y2="429" stroke="#D9D9D9" stroke-width="2"/>
<rect x="628" y="157" width="160" height="50" rx="12" fill="#D9D9D9"/>
<rect x="628" y="450" width="160" height="50" rx="12" fill="#D9D9D9"/>
<rect x="628" y="76" width="160" height="35" rx="12" fill="#48ED45" fill-opacity="0.5"/>
<rect x="815" y="76" width="313" height="35" rx="12" fill="#D9D9D9" fill-opacity="0.5"/>
<rect x="628" y="354" width="160" height="50" rx="12" fill="#D9D9D9"/>
<rect x="628" y="273" width="160" height="35" rx="12" fill="#ED4545" fill-opacity="0.5"/>
<rect x="815" y="273" width="313" height="35" rx="12" fill="#D9D9D9" fill-opacity="0.5"/>
<rect x="628" y="537" width="313" height="35" rx="12" fill="#D9D9D9" fill-opacity="0.5"/>
</svg>
